<svg width="26" height="26" viewBox="0 0 26 26" fill="none" xmlns="http://www.w3.org/2000/svg">
<rect width="26" height="26" fill="white"/>
<path d="M21.2716 16.8594V5.63672C21.2716 4.51675 20.3605 3.60547 19.2403 3.60547H12.8477V10.8672C12.8477 12.5473 11.4809 13.9141 9.80078 13.9141C8.12064 13.9141 6.75391 12.5473 6.75391 10.8672V6.5C6.75391 5.93903 7.20856 5.48438 7.76953 5.48438C8.33051 5.48438 8.78516 5.93903 8.78516 6.5V10.8672C8.78516 11.4272 9.2408 11.8828 9.80078 11.8828C10.3608 11.8828 10.8164 11.4272 10.8164 10.8672V3.04688C10.8164 2.48689 10.3608 2.03125 9.80078 2.03125C9.33205 2.03125 8.91568 2.36192 8.81094 2.81737C8.69708 3.31308 8.23787 3.63879 7.74573 3.6015C7.72014 3.60349 7.69435 3.60547 7.66797 3.60547H6.75391C5.63394 3.60547 4.72266 4.51675 4.72266 5.63672V21.9375C4.72266 23.0575 5.63394 23.9688 6.75391 23.9688H19.2405C20.3605 23.9688 21.2718 23.0575 21.2718 21.9375C21.2718 21.3765 21.7264 20.9219 22.2874 20.9219C22.8482 20.9219 23.303 21.3765 23.303 21.9375C23.303 24.1776 21.4805 26 19.2405 26H6.75391C4.51378 26 2.69141 24.1776 2.69141 21.9375V5.63672C2.69141 3.39659 4.51378 1.57422 6.75391 1.57422H7.1312C7.65448 0.618301 8.66138 0 9.80078 0C10.9469 0 11.9469 0.636353 12.467 1.57422H19.2403C21.4805 1.57422 23.3028 3.39659 23.3028 5.63672V16.8594C23.3028 17.4203 22.8482 17.875 22.2872 17.875C21.7264 17.875 21.2716 17.4203 21.2716 16.8594V16.8594ZM7.76953 19.9062C7.20856 19.9062 6.75391 20.3609 6.75391 20.9219C6.75391 21.4828 7.20856 21.9375 7.76953 21.9375H15.1328C15.6938 21.9375 16.1484 21.4828 16.1484 20.9219C16.1484 20.3609 15.6938 19.9062 15.1328 19.9062H7.76953ZM19.1953 16.9102C19.1953 16.3492 18.7407 15.8945 18.1797 15.8945H7.76953C7.20856 15.8945 6.75391 16.3492 6.75391 16.9102C6.75391 17.4711 7.20856 17.9258 7.76953 17.9258H18.1797C18.7407 17.9258 19.1953 17.4711 19.1953 16.9102ZM18.1797 11.9336H15.8438C15.2828 11.9336 14.8281 12.3882 14.8281 12.9492C14.8281 13.5102 15.2828 13.9648 15.8438 13.9648H18.1797C18.7407 13.9648 19.1953 13.5102 19.1953 12.9492C19.1953 12.3882 18.7407 11.9336 18.1797 11.9336ZM18.1797 7.92188H15.8438C15.2828 7.92188 14.8281 8.37653 14.8281 8.9375C14.8281 9.49847 15.2828 9.95312 15.8438 9.95312H18.1797C18.7407 9.95312 19.1953 9.49847 19.1953 8.9375C19.1953 8.37653 18.7407 7.92188 18.1797 7.92188Z" fill="#4C51CC"/>
</svg>
