<svg width="26" height="26" viewBox="0 0 26 26" fill="none" xmlns="http://www.w3.org/2000/svg">
<rect width="26" height="26" fill="white"/>
<path d="M24.9844 14.8027C25.5453 14.8027 26 14.348 26 13.7871V7.13477C26 4.8947 24.1776 3.07227 21.9375 3.07227H4.0625C1.82244 3.07227 0 4.8947 0 7.13477V18.8652C0 21.1053 1.82244 22.9277 4.0625 22.9277H21.9375C24.1776 22.9277 26 21.1053 26 18.8652C26 18.3043 25.5453 17.8496 24.9844 17.8496C24.4234 17.8496 23.9688 18.3043 23.9688 18.8652C23.9688 19.9853 23.0575 20.8965 21.9375 20.8965H4.0625C2.94247 20.8965 2.03125 19.9853 2.03125 18.8652V7.34998L10.8547 12.8366C11.5164 13.248 12.2582 13.4537 13 13.4537C13.7418 13.4537 14.4836 13.248 15.1453 12.8366L23.9688 7.34998V13.7871C23.9688 14.348 24.4234 14.8027 24.9844 14.8027ZM14.0726 11.1116C13.411 11.523 12.589 11.5231 11.9274 11.1116L2.87874 5.48498C3.21227 5.24499 3.62116 5.10352 4.0625 5.10352H21.9375C22.3788 5.10352 22.7877 5.24504 23.1213 5.48504L14.0726 11.1116Z" fill="#E0E0E0"/>
</svg>
