<svg width="26" height="26" viewBox="0 0 26 26" fill="none" xmlns="http://www.w3.org/2000/svg">
<g clip-path="url(#clip0)">
<rect width="26" height="26" fill="white"/>
<path fill-rule="evenodd" clip-rule="evenodd" d="M4.60012 21.6836H18.6875C19.2484 21.6836 19.7031 22.1383 19.7031 22.6992C19.7031 23.2601 19.2484 23.7148 18.6875 23.7148H4.13441C4.08748 24.1199 4.0625 24.5422 4.0625 24.9844C4.0625 25.5453 3.6078 26 3.04688 26C2.48595 26 2.03125 25.5453 2.03125 24.9844C2.03125 21.7017 3.14829 19.0108 5.44619 16.7578C6.98232 15.2516 8.89835 14.0787 10.8576 13.0007C8.93202 11.9441 6.92997 10.7287 5.34396 9.14088C3.11487 6.90925 2.03125 4.25146 2.03125 1.01562C2.03125 0.454695 2.48595 0 3.04688 0C3.6078 0 4.0625 0.454695 4.0625 1.01562C4.0625 6.97973 8.56675 9.48193 12.9999 11.8488C14.8465 10.8618 16.6324 9.87731 18.1164 8.68359H11.375C10.8141 8.68359 10.3594 8.2289 10.3594 7.66797C10.3594 7.10704 10.8141 6.65234 11.375 6.65234H20.1288C20.6478 5.96751 21.0734 5.2129 21.3811 4.36719H7.3125C6.75157 4.36719 6.29688 3.91249 6.29688 3.35156C6.29688 2.79063 6.75157 2.33594 7.3125 2.33594H21.86C21.9108 1.91552 21.9375 1.47621 21.9375 1.01562C21.9375 0.454695 22.3922 0 22.9531 0C23.5141 0 23.9688 0.454695 23.9688 1.01562C23.9688 4.29828 22.8517 6.98923 20.5538 9.24219C18.5833 11.1741 15.9878 12.558 13.4778 13.8962C11.4367 14.9844 9.44343 16.0472 7.82026 17.3672H14.7773C15.3383 17.3672 15.793 17.8219 15.793 18.3828C15.793 18.9437 15.3383 19.3984 14.7773 19.3984H5.83329C5.32116 20.0836 4.90176 20.838 4.60012 21.6836ZM16.1056 14.6985C16.4082 14.2261 17.0363 14.0885 17.5087 14.3909C20.5164 16.317 23.9688 19.2618 23.9688 24.9843C23.9688 25.5453 23.5141 26 22.9531 26C22.3922 26 21.9375 25.5453 21.9375 24.9843C21.9375 20.2742 19.1449 17.8508 16.4132 16.1015C15.9409 15.799 15.8032 15.1709 16.1056 14.6985Z" fill="#E0E0E0"/>
</g>
<defs>
<clipPath id="clip0">
<rect width="26" height="26" fill="white"/>
</clipPath>
</defs>
</svg>
