<svg width="26" height="26" viewBox="0 0 26 26" fill="none" xmlns="http://www.w3.org/2000/svg">
<g clip-path="url(#clip0)">
<rect width="26" height="26" fill="white"/>
<path d="M25.7049 12.0057L15.1225 1.35372C15.109 1.34001 15.0949 1.3267 15.0806 1.31381C13.9251 0.276295 12.179 0.272588 11.019 1.30522C11.0046 1.31807 10.9906 1.33133 10.9769 1.34494L0.298182 12.0027C-0.0988261 12.3989 -0.0994863 13.042 0.29676 13.439C0.693057 13.836 1.3361 13.8366 1.73306 13.4404L2.53906 12.636V21.4051C2.53906 23.6452 4.36149 25.4676 6.60156 25.4676H10.2578C10.8187 25.4676 11.2734 25.0129 11.2734 24.452V16.1746H14.8281V24.452C14.8281 25.0129 15.2828 25.4676 15.8437 25.4676H19.3984C21.6385 25.4676 23.4609 23.6452 23.4609 21.4051C23.4609 20.8442 23.0062 20.3895 22.4453 20.3895C21.8844 20.3895 21.4297 20.8442 21.4297 21.4051C21.4297 22.5251 20.5185 23.4364 19.3984 23.4364H16.8594V15.159C16.8594 14.5981 16.4047 14.1434 15.8437 14.1434H10.2578C9.69688 14.1434 9.24218 14.5981 9.24218 15.159V23.4364H6.60156C5.48152 23.4364 4.57031 22.5251 4.57031 21.4051V10.6395C4.57031 10.6293 4.57015 10.6192 4.56985 10.6092L12.3879 2.80657C12.7684 2.48345 13.3265 2.48467 13.7055 2.80937L21.4297 10.5845V16.327C21.4297 16.8879 21.8844 17.3426 22.4453 17.3426C23.0062 17.3426 23.4609 16.8879 23.4609 16.327V12.6291L24.2639 13.4374C24.4624 13.6372 24.7233 13.7372 24.9844 13.7372C25.2432 13.7372 25.5021 13.6388 25.7002 13.442C26.0981 13.0467 26.1002 12.4037 25.7049 12.0057Z" fill="#E0E0E0"/>
</g>
<defs>
<clipPath id="clip0">
<rect width="26" height="26" fill="white"/>
</clipPath>
</defs>
</svg>
