<svg width="26" height="26" viewBox="0 0 26 26" fill="none" xmlns="http://www.w3.org/2000/svg">
<g clip-path="url(#clip0)">
<rect width="26" height="26" fill="white"/>
<path fill-rule="evenodd" clip-rule="evenodd" d="M9.31009 5.03285L9.29257 5.033C8.73957 5.0331 8.2868 4.58963 8.27746 4.03464C8.27451 3.86178 8.28172 2.31194 9.42004 1.15422C10.176 0.385295 11.2152 -0.00302908 12.5077 1.77909e-05C13.7068 1.77909e-05 14.9085 0.574091 16.1806 1.18178L16.1807 1.1818C17.682 1.89903 19.2344 2.64064 21.018 2.64064H21.0555C21.6849 2.64064 23.2377 2.44432 24.0585 0.625897C24.2893 0.114631 24.8909 -0.112767 25.402 0.118033C25.9133 0.348783 26.1407 0.950338 25.9099 1.46155C25.0025 3.47173 23.1879 4.67184 21.0555 4.67184H21.018C18.7741 4.67184 16.8507 3.75298 15.3051 3.01462L15.3051 3.0146C14.2008 2.48703 13.2466 2.03122 12.5038 2.03122H12.4964C11.7716 2.03122 11.2253 2.2153 10.8684 2.57823C10.3189 3.13708 10.3083 3.99183 10.3084 4.00021C10.3179 4.56104 9.87092 5.0234 9.31009 5.03285ZM24.2119 6.24662C24.5762 5.82011 25.2173 5.76974 25.6438 6.13399C26.0703 6.49829 26.1206 7.13941 25.7564 7.56592C24.2511 9.32818 22.4937 8.85241 21.3306 8.53752C20.1861 8.22765 19.949 8.24136 19.6393 8.63532C19.4389 8.89029 19.141 9.02344 18.84 9.02344C18.6204 9.02344 18.3992 8.95255 18.2132 8.8063C17.7721 8.45972 17.6956 7.82125 18.0422 7.38021C18.5754 6.70172 19.2593 6.33651 20.075 6.29471C20.7008 6.26267 21.2909 6.42238 21.8615 6.57685C22.996 6.88398 23.5698 6.99829 24.2119 6.24662ZM25.4957 23.08C25.3414 22.5407 24.7791 22.2285 24.24 22.3829C23.7007 22.5371 23.3886 23.0993 23.5428 23.6386L23.6372 23.9687H18.5473L16.7039 17.2656H18.1795C18.7404 17.2656 19.1951 16.8109 19.1951 16.25C19.1951 15.6891 18.7404 15.2344 18.1795 15.2344H16.1453L15.447 12.6953H21.2263V15.3982C21.2263 15.4927 21.2395 15.5867 21.2654 15.6775L22.2645 19.1698C22.392 19.6158 22.7985 19.9064 23.2404 19.9064C23.3329 19.9064 23.4269 19.8937 23.5202 19.8669C24.0595 19.7127 24.3716 19.1505 24.2174 18.6112L23.2575 15.2558V11.6796C23.2575 11.1187 22.8028 10.664 22.2419 10.664H15.4373V7.61719C15.4373 7.05626 14.9826 6.60156 14.4217 6.60156H4.36711C3.80618 6.60156 3.35149 7.05626 3.35149 7.61719V12.71L0.0366408 24.7139C-0.0477577 25.0195 0.015465 25.3471 0.20752 25.5994C0.399625 25.8517 0.698524 25.9998 1.01565 25.9998H24.9841C25.3029 25.9998 25.6032 25.8501 25.7951 25.5957C25.987 25.3412 26.0483 25.0113 25.9606 24.7049L25.4957 23.08ZM2.34963 23.9686L4.90189 14.7265H10.3593C10.9202 14.7265 11.3749 14.2718 11.3749 13.7109C11.3749 13.15 10.9202 12.6953 10.3593 12.6953H5.38274V8.63281H13.4061V12.7968C13.4061 12.8878 13.4183 12.9784 13.4424 13.0661L16.4406 23.9686H2.34963ZM5.68727 5.0258C5.66812 5.02687 5.64898 5.02738 5.63009 5.02738C5.09495 5.02748 4.64696 4.60899 4.6169 4.06812C4.61213 3.98179 4.51381 1.93612 5.7576 0.381247C6.10799 -0.0568431 6.74712 -0.127785 7.18511 0.222606C7.6231 0.572997 7.69414 1.21213 7.34375 1.65012C6.59168 2.59023 6.64424 3.94208 6.645 3.95543C6.67608 4.5155 6.24728 4.99472 5.68727 5.0258Z" fill="#E0E0E0"/>
</g>
<defs>
<clipPath id="clip0">
<rect width="26" height="26" fill="white"/>
</clipPath>
</defs>
</svg>
