<svg width="26" height="26" viewBox="0 0 26 26" fill="none" xmlns="http://www.w3.org/2000/svg">
<g clip-path="url(#clip0)">
<rect width="26" height="26" fill="white"/>
<path fill-rule="evenodd" clip-rule="evenodd" d="M23.4609 7.53198V8.25764C25.041 9.32867 26 11.1123 26 13.0485C26 14.9033 25.238 16.4725 23.7963 17.5866C22.5906 18.5182 21.387 18.7669 21.3749 18.7694C21.3077 18.7828 21.2407 18.7893 21.1747 18.7893C20.7005 18.7893 20.2764 18.4554 20.1799 17.9726C20.0704 17.4251 20.4234 16.8924 20.9692 16.779C21.0562 16.7582 23.9688 16.0295 23.9688 13.0485C23.9688 11.6541 23.2026 10.3813 21.9692 9.72669C21.6178 9.54022 21.422 9.17673 21.4309 8.80445C21.4308 8.80086 21.4305 8.79731 21.4303 8.79375C21.43 8.78955 21.4297 8.78535 21.4297 8.78109V7.53198C21.4297 4.83488 19.2354 2.64063 16.5383 2.64063C14.1482 2.64063 12.0703 4.41832 11.7051 6.77574C11.6447 7.16503 11.3648 7.48434 10.9867 7.595C10.6087 7.70565 10.2007 7.58768 9.94002 7.29239C9.46705 6.75655 8.78698 6.44922 8.07427 6.44922C6.70221 6.44922 5.58599 7.56544 5.58599 8.9375V10.7656C5.58599 11.3266 5.13129 11.7813 4.57036 11.7813H4.56254C3.16682 11.7813 2.0313 12.8975 2.0313 14.2695C2.0313 15.6648 3.10197 16.7578 4.4688 16.7578H5.02739C5.58832 16.7578 6.04302 17.2125 6.04302 17.7734C6.04302 18.3344 5.58832 18.7891 5.02739 18.7891H4.46875C3.2568 18.7891 2.12677 18.3161 1.2868 17.4573C0.457031 16.6089 0 15.4768 0 14.2695C0 12.1205 1.52232 10.3169 3.55469 9.86111V8.9375C3.55469 6.44541 5.58213 4.41797 8.07422 4.41797C8.79618 4.41797 9.4995 4.59134 10.1293 4.91314C10.539 3.91224 11.182 3.01168 12.013 2.29328C13.269 1.20737 14.8762 0.609375 16.5383 0.609375C20.3555 0.609375 23.4609 3.71485 23.4609 7.53198ZM16.046 15.9446V16.7759C17.3033 16.9266 18.2812 17.999 18.2812 19.2962V24.3743C18.2812 24.9352 17.8266 25.3899 17.2656 25.3899H8.73438C8.17345 25.3899 7.71875 24.9352 7.71875 24.3743V19.2962C7.71875 17.9996 8.69583 16.9276 9.95226 16.7761V15.9446C9.95226 14.2929 11.3191 12.9492 12.9991 12.9492C14.6792 12.9492 16.046 14.2929 16.046 15.9446ZM12.9991 14.9805C12.4391 14.9805 11.9835 15.413 11.9835 15.9446V16.7571H14.0148V15.9446C14.0148 15.413 13.5592 14.9805 12.9991 14.9805ZM9.75 23.3587H16.25V19.2962C16.25 19.0162 16.0222 18.7883 15.7422 18.7883H10.2578C9.97781 18.7883 9.75 19.0162 9.75 19.2962V23.3587Z" fill="#E0E0E0"/>
</g>
<defs>
<clipPath id="clip0">
<rect width="26" height="26" fill="white"/>
</clipPath>
</defs>
</svg>
