<svg width="26" height="26" viewBox="0 0 26 26" fill="none" xmlns="http://www.w3.org/2000/svg">
<rect width="26" height="26" fill="white"/>
<path fill-rule="evenodd" clip-rule="evenodd" d="M22.4417 9.44536H22.9531C24.6332 9.44536 26 10.8122 26 12.4922V13.5079C26 15.1879 24.6332 16.5547 22.9531 16.5547H22.4416C22.3071 16.5547 22.1851 16.6395 22.1309 16.7707L22.1233 16.7892C22.0686 16.921 22.0947 17.0676 22.1899 17.1627L22.5515 17.5244C23.127 18.0999 23.4439 18.865 23.4439 19.6789C23.4439 20.4927 23.127 21.2578 22.5515 21.8333L21.8334 22.5514C21.2579 23.1269 20.4928 23.4439 19.6789 23.4439C18.865 23.4439 18.0999 23.1269 17.5244 22.5514L17.1627 22.1898C17.0676 22.0947 16.921 22.0686 16.7893 22.1232L16.7694 22.1314C16.6394 22.1851 16.5547 22.307 16.5547 22.4416V22.9531C16.5547 24.6332 15.1879 26 13.5078 26H12.4922C10.8121 26 9.44531 24.6332 9.44531 22.9531V22.4416C9.44531 22.307 9.36061 22.1851 9.22944 22.1309L9.2103 22.123C9.07913 22.0685 8.93232 22.0946 8.83721 22.1898L8.47559 22.5514C7.90014 23.1269 7.13502 23.4439 6.3211 23.4439C5.50728 23.4439 4.74211 23.1269 4.1666 22.5514L3.44845 21.8333C2.873 21.2578 2.55607 20.4927 2.55607 19.6789C2.55607 18.865 2.873 18.0999 3.4485 17.5244L3.81012 17.1627C3.90528 17.0675 3.93143 16.9209 3.87674 16.7892L3.8677 16.7673C3.81484 16.6394 3.69291 16.5546 3.55834 16.5546H3.04688C1.36683 16.5546 0 15.1878 0 13.5078V12.4921C0 10.8121 1.36683 9.44526 3.04688 9.44526H3.55839C3.69291 9.44526 3.81494 9.36051 3.86907 9.22934L3.87522 9.21451C3.93143 9.07903 3.90533 8.93242 3.81017 8.83721L3.44855 8.47559C2.26053 7.28757 2.26053 5.35463 3.4485 4.1666L4.16665 3.44855C4.74216 2.87305 5.50728 2.55612 6.32115 2.55612C7.13502 2.55612 7.90019 2.87305 8.47564 3.44855L8.83731 3.81022C8.93242 3.90538 9.07918 3.93154 9.21075 3.87679L9.23061 3.86857C9.36066 3.81489 9.44536 3.69296 9.44536 3.55845V3.04688C9.44536 1.36683 10.8122 0 12.4922 0H13.5079C15.1879 0 16.5547 1.36683 16.5547 3.04688V3.55845C16.5547 3.69296 16.6394 3.81489 16.7706 3.86907L16.7898 3.877C16.9209 3.93148 17.0676 3.90538 17.1628 3.81017L17.5245 3.44855C18.0999 2.87305 18.865 2.55612 19.679 2.55612C20.4928 2.55612 21.2579 2.87305 21.8334 3.44855L22.5516 4.1667C23.7396 5.35468 23.7396 7.28767 22.5516 8.47564L22.1899 8.83731C22.0948 8.93247 22.0686 9.07908 22.1233 9.2108L22.1323 9.23274C22.1852 9.36061 22.3071 9.44536 22.4417 9.44536ZM22.9531 14.5234C23.5131 14.5234 23.9688 14.0678 23.9688 13.5078V12.4922C23.9688 11.9322 23.5131 11.4766 22.9531 11.4766H22.4416C21.4816 11.4766 20.6228 10.8989 20.2535 10.0048L20.2459 9.98623C19.8761 9.09599 20.0747 8.07981 20.7535 7.40096L21.1152 7.03925C21.5112 6.64325 21.5112 5.99894 21.1151 5.60295L20.397 4.8848C20.2052 4.693 19.9501 4.58732 19.6789 4.58732C19.4075 4.58732 19.1526 4.69295 18.9607 4.88475L18.599 5.24646C17.9201 5.92521 16.9039 6.12381 16.0101 5.7526L15.9963 5.74691C15.1012 5.37733 14.5234 4.51846 14.5234 3.55845V3.04688C14.5234 2.48686 14.0678 2.03125 13.5078 2.03125H12.4922C11.9322 2.03125 11.4766 2.48686 11.4766 3.04688V3.55845C11.4766 4.51846 10.8988 5.37733 10.0047 5.74651L9.9904 5.75245C9.09619 6.12396 8.07991 5.92531 7.40101 5.24657L7.0393 4.88485C6.8475 4.693 6.59247 4.58737 6.32115 4.58737C6.04987 4.58737 5.79485 4.69305 5.60295 4.88485L4.88485 5.603C4.48881 5.99899 4.48881 6.6433 4.88485 7.03935L5.24646 7.40096C5.92526 8.07981 6.12391 9.09604 5.7526 9.98999L5.74788 10.0015C5.37728 10.8989 4.51841 11.4766 3.55839 11.4766H3.04688C2.48686 11.4766 2.03125 11.9322 2.03125 12.4922V13.5078C2.03125 14.0678 2.48686 14.5234 3.04688 14.5234H3.55839C4.51836 14.5234 5.37723 15.1011 5.74651 15.9952L5.75311 16.0112C6.12376 16.9049 5.925 17.9206 5.24652 18.599L4.88485 18.9607C4.693 19.1525 4.58737 19.4076 4.58737 19.6789C4.58737 19.9501 4.693 20.2051 4.88485 20.397L5.603 21.1151C5.7948 21.3069 6.04987 21.4126 6.32115 21.4126C6.59247 21.4126 6.84745 21.307 7.0393 21.1152L7.40096 20.7535C7.85266 20.3018 8.45391 20.0627 9.06892 20.0627C9.37818 20.0627 9.69084 20.1231 9.98994 20.2473L10.0037 20.253C10.8988 20.6227 11.4766 21.4815 11.4766 22.4416V22.9531C11.4766 23.5131 11.9322 23.9688 12.4922 23.9688H13.5078C14.0678 23.9688 14.5234 23.5131 14.5234 22.9531V22.4416C14.5234 21.4815 15.1012 20.6227 15.9953 20.2535L16.0096 20.2476C16.9039 19.8761 17.9201 20.0747 18.599 20.7534L18.9607 21.1151C19.1525 21.307 19.4075 21.4126 19.6789 21.4126C19.9501 21.4126 20.2051 21.3069 20.3971 21.1151L21.1151 20.397C21.307 20.2051 21.4126 19.9501 21.4126 19.6789C21.4126 19.4076 21.307 19.1525 21.1152 18.9607L20.7535 18.599C20.075 17.9206 19.8763 16.9049 20.2469 16.0112L20.2535 15.9952C20.6227 15.1011 21.4816 14.5234 22.4416 14.5234H22.9531ZM7.10938 13C7.10938 9.75193 9.75188 7.10938 13 7.10938C16.2481 7.10938 18.8906 9.75193 18.8906 13C18.8906 13.5629 18.8112 14.1201 18.6544 14.6562C18.4969 15.1946 17.9329 15.5034 17.3945 15.3459C16.8561 15.1884 16.5473 14.6244 16.7047 14.086C16.8074 13.7353 16.8594 13.3698 16.8594 13C16.8594 10.8719 15.128 9.14062 13 9.14062C10.872 9.14062 9.14062 10.8719 9.14062 13C9.14062 15.1281 10.872 16.8594 13 16.8594C13.3985 16.8594 13.7908 16.7991 14.1662 16.6803C14.7009 16.5111 15.2717 16.8074 15.441 17.3422C15.6102 17.8769 15.3139 18.4477 14.7792 18.6169C14.2053 18.7986 13.6067 18.8906 13 18.8906C9.75188 18.8906 7.10938 16.2481 7.10938 13Z" fill="#E0E0E0"/>
</svg>
